<?xml version="1.0" encoding="UTF-8" standalone="no"?>
<!DOCTYPE svg PUBLIC "-//W3C//DTD SVG 1.1//EN" "http://www.w3.org/Graphics/SVG/1.1/DTD/svg11.dtd">
<svg width="100%" height="100%" viewBox="0 0 200 200" version="1.1" xmlns="http://www.w3.org/2000/svg" xmlns:xlink="http://www.w3.org/1999/xlink" xml:space="preserve" xmlns:serif="http://www.serif.com/" style="fill-rule:evenodd;clip-rule:evenodd;stroke-linejoin:round;stroke-miterlimit:1.41421;">
    <g transform="matrix(1,0,0,1,-454.599,-232.034)">
        <g id="logo-blue-no-bg" transform="matrix(1.83581,0,0,2.20099,554.599,-269.364)">
            <rect x="-54.472" y="227.806" width="108.944" height="90.868" style="fill:none;"/>
            <g>
                <g transform="matrix(0.958386,0,0,0.833095,-1025.79,-634.972)">
                    <ellipse cx="1070.33" cy="1090.17" rx="56.837" ry="54.537" style="fill:white;"/>
                </g>
                <g transform="matrix(0.647941,0,0,0.563235,-667.233,-24.6137)">
                    <g transform="matrix(1.47912,0,0,1.47912,-486.774,-1061.4)">
                        <path d="M1048.27,1049.8C1054.17,1049.8 1058.96,1054.59 1058.96,1060.5L1058.96,1081.9C1058.96,1087.8 1054.17,1092.6 1048.27,1092.6L1002.9,1092.6L991.636,1103.81L991.636,1083.77L991.8,1083.77C991.693,1083.16 991.636,1082.54 991.636,1081.9L991.636,1060.5C991.636,1054.59 996.43,1049.8 1002.34,1049.8L1048.27,1049.8Z" style="fill:rgb(65,113,141);"/>
                    </g>
                    <g transform="matrix(0.701458,-0.712711,0.712711,0.701458,-119.925,917.608)">
                        <path d="M1043.07,516.667L1062.86,537.88L1021.94,537.465L1043.07,516.667Z" style="fill:rgb(100,172,215);"/>
                    </g>
                    <path d="M1079.57,502.208C1079.57,493.474 1072.18,486.382 1063.07,486.382L996.473,486.382C987.37,486.382 979.98,493.474 979.98,502.208L979.98,533.858C979.98,542.593 987.37,549.684 996.473,549.684L1063.07,549.684C1072.18,549.684 1079.57,542.593 1079.57,533.858L1079.57,502.208Z" style="fill:rgb(100,172,215);"/>
                    <g transform="matrix(1.19957,0,0,1.44348,-198.667,-1214.68)">
                        <path d="M1024.07,1189.47L1028.69,1196.24L1037.86,1197.8L1031.54,1203.54L1032.59,1211.27L1024.07,1208.05L1015.55,1211.27L1016.59,1203.54L1010.28,1197.8L1019.45,1196.24L1024.07,1189.47Z" style="fill:white;"/>
                    </g>
                </g>
            </g>
        </g>
    </g>
</svg>
